<svg width="20" height="21" viewBox="0 0 20 21" fill="none" xmlns="http://www.w3.org/2000/svg">
<path d="M12.52 16.6777C11.71 16.8877 10.87 16.9877 10 16.9877C6.73 16.9877 3.8 15.4577 1.8 13.0377C0.4 11.3477 0.4 8.73766 1.8 7.05766C1.96 6.85766 2.14 6.66766 2.32 6.47766" stroke="#C2C3CB" stroke-width="1.5" stroke-linecap="round" stroke-linejoin="round"/>
<path d="M18.1998 13.0377C17.3998 13.9977 16.4498 14.8177 15.3998 15.4577L4.58984 4.63766C6.17984 3.65766 8.01984 3.10767 9.99984 3.10767C13.2698 3.10767 16.1998 4.63767 18.1998 7.05767C19.5998 8.73767 19.5998 11.3577 18.1998 13.0377Z" stroke="#C2C3CB" stroke-width="1.5" stroke-linecap="round" stroke-linejoin="round"/>
<path d="M13.0798 10.0477C13.0798 10.8977 12.7298 11.6677 12.1798 12.2277L7.81982 7.86765C8.36982 7.30765 9.14982 6.96765 9.99982 6.96765C11.7098 6.96765 13.0798 8.33765 13.0798 10.0477Z" stroke="#C2C3CB" stroke-width="1.5" stroke-linecap="round" stroke-linejoin="round"/>
<path d="M0.75 0.797607L4.59 4.6376L7.82 7.86761L12.18 12.2276L15.41 15.4576L19.25 19.2976" stroke="#C2C3CB" stroke-width="1.5" stroke-linecap="round" stroke-linejoin="round"/>
</svg>
