<svg width="39" height="39" viewBox="0 0 39 39" fill="none" xmlns="http://www.w3.org/2000/svg">
<g clip-path="url(#clip0_80_1184)">
<path d="M31.9838 18.1502L29.1138 15.8753C28.3102 15.2383 28.1746 14.0663 28.8117 13.2626C29.7426 12.0882 29.5445 10.3752 28.37 9.44422C27.1955 8.51324 25.4826 8.71135 24.5516 9.88584L23.9651 10.6257L22.8664 9.75486C22.4831 9.45104 21.9242 9.51571 21.6204 9.89896L20.8119 10.919C16.5579 9.07921 11.4255 10.2325 8.41262 14.0333C4.81603 18.5706 5.58136 25.1881 10.1186 28.7847C14.6559 32.3812 21.2734 31.6159 24.87 27.0786C27.8828 23.2778 27.8341 18.0176 25.0719 14.2959L25.8805 13.2758C26.1843 12.8926 26.1196 12.3336 25.7364 12.0299L24.6377 11.1589L25.2242 10.419C25.8612 9.61536 27.0333 9.47985 27.8368 10.1168C28.6404 10.7538 28.776 11.9258 28.139 12.7295C27.208 13.904 27.4061 15.617 28.5806 16.5479L31.4505 18.8229C31.6363 18.9701 31.9062 18.9389 32.0535 18.7531C32.2007 18.5674 32.1695 18.2974 31.9838 18.1502ZM24.1973 26.5454C20.8947 30.7118 14.8182 31.4146 10.6518 28.112C6.48537 24.8094 5.78264 18.7329 9.08524 14.5665C12.3878 10.4001 18.4644 9.69735 22.6308 12.9999C26.7972 16.3025 27.4999 22.379 24.1973 26.5454ZM25.2031 12.7024C25.2155 12.7122 25.2176 12.7303 25.2078 12.7426L24.5188 13.6118C24.113 13.1519 23.6611 12.7214 23.1639 12.3273C22.6667 11.9332 22.1445 11.5915 21.604 11.3013L22.293 10.4321C22.3027 10.4198 22.3208 10.4177 22.3332 10.4275L25.2031 12.7024Z" fill="white"/>
<path d="M34.1362 19.8564L33.4187 19.2877C33.233 19.1405 32.963 19.1717 32.8158 19.3575C32.6686 19.5432 32.6998 19.8131 32.8855 19.9604L33.603 20.5291C33.7887 20.6763 34.0587 20.6451 34.2059 20.4594C34.3531 20.2736 34.3219 20.0037 34.1362 19.8564Z" fill="white"/>
<path d="M33.69 15.9978C33.5042 15.8506 33.2343 15.8818 33.087 16.0675L32.5183 16.785C32.3711 16.9707 32.4023 17.2407 32.588 17.3879C32.7738 17.5352 33.0437 17.504 33.191 17.3182L33.7597 16.6007C33.9069 16.4149 33.8757 16.145 33.69 15.9978Z" fill="white"/>
<path d="M30.8463 19.5852C30.6606 19.438 30.3907 19.4692 30.2434 19.6549L29.6747 20.3724C29.5275 20.5581 29.5587 20.8281 29.7444 20.9753C29.9301 21.1226 30.2001 21.0914 30.3473 20.9056L30.9161 20.1881C31.0633 20.0024 31.0321 19.7324 30.8463 19.5852Z" fill="white"/>
<path d="M32.4591 21.1656L32.3539 20.2562C32.3267 20.0208 32.1137 19.8519 31.8783 19.8792C31.6429 19.9065 31.4741 20.1194 31.5013 20.3548L31.6065 21.2642C31.6201 21.382 31.6802 21.4831 31.7662 21.5513C31.8523 21.6195 31.9644 21.6549 32.0821 21.6412C32.3176 21.614 32.4864 21.4011 32.4591 21.1656Z" fill="white"/>
<path d="M31.9331 16.6183L31.8279 15.7089C31.8007 15.4734 31.5877 15.3046 31.3523 15.3319C31.1169 15.3591 30.948 15.5721 30.9753 15.8076L31.0805 16.7169C31.0941 16.8347 31.1541 16.9357 31.2402 17.004C31.3262 17.0722 31.4383 17.1076 31.5561 17.0939C31.7915 17.0667 31.9603 16.8537 31.9331 16.6183Z" fill="white"/>
<path d="M30.3245 18.6476C30.2973 18.4122 30.0843 18.2433 29.8489 18.2706L28.9395 18.3758C28.704 18.403 28.5352 18.616 28.5624 18.8514C28.576 18.9691 28.6361 19.0703 28.7221 19.1385C28.8082 19.2067 28.9203 19.2421 29.038 19.2284L29.9474 19.1232C30.1829 19.096 30.3517 18.883 30.3245 18.6476Z" fill="white"/>
<path d="M34.872 18.1217C34.8447 17.8863 34.6318 17.7174 34.3964 17.7447L33.487 17.8499C33.2515 17.8771 33.0827 18.0901 33.11 18.3255C33.1236 18.4433 33.1836 18.5444 33.2696 18.6126C33.3557 18.6808 33.4678 18.7162 33.5855 18.7025L34.4949 18.5973C34.7304 18.5702 34.8992 18.3572 34.872 18.1217Z" fill="white"/>
<path d="M24.7032 17.3646C24.5719 17.0322 24.4186 16.705 24.2474 16.392C24.1337 16.1841 23.873 16.1077 23.665 16.2214C23.457 16.3352 23.3806 16.5959 23.4944 16.8039C23.6485 17.0857 23.7866 17.3805 23.9048 17.6799C23.9335 17.7526 23.9799 17.8131 24.037 17.8584C24.1531 17.9504 24.3139 17.9798 24.4616 17.9214C24.6821 17.8344 24.7902 17.5851 24.7032 17.3646Z" fill="white"/>
<path d="M10.5491 25.4469C9.41923 24.0422 8.80897 22.2698 8.83079 20.4561C8.83362 20.2191 8.64384 20.0247 8.40681 20.0218C8.16979 20.019 7.97534 20.2088 7.97255 20.4458C7.94834 22.4583 8.62587 24.4254 9.88031 25.9849C9.90087 26.0104 9.9237 26.033 9.94836 26.0526C10.1019 26.1743 10.3246 26.1784 10.4837 26.0503C10.6683 25.9017 10.6976 25.6315 10.5491 25.4469Z" fill="white"/>
<path d="M24.6646 23.845C25.2822 22.3405 25.4619 20.6933 25.1842 19.0815C25.1439 18.8479 24.922 18.6911 24.6884 18.7314C24.4548 18.7716 24.2981 18.9935 24.3383 19.2271C24.5886 20.6798 24.4268 22.1639 23.8705 23.5191C23.7962 23.7001 23.8547 23.9026 24.0007 24.0183C24.0316 24.0428 24.0663 24.0634 24.1045 24.0791C24.3239 24.1691 24.5746 24.0644 24.6646 23.845Z" fill="white"/>
</g>
<defs>
<clipPath id="clip0_80_1184">
<rect width="26.4939" height="26.4939" fill="white" transform="translate(17.4508 0.788818) rotate(38.4029)"/>
</clipPath>
</defs>
</svg>
